<svg width="344pt" height="44pt" viewBox="0.00 0.00 344.11 44.00" xmlns="http://www.w3.org/2000/svg" xmlns:xlink="http://www.w3.org/1999/xlink">
<g id="graph0" class="graph" transform="scale(1 1) rotate(0) translate(4 40)">
<title>G</title>
<polygon fill="white" stroke="none" points="-4,4 -4,-40 340.11,-40 340.11,4 -4,4"></polygon>
<!-- Parse -->
<g id="node1" class="node">
<title>Parse</title>
<ellipse fill="none" stroke="black" cx="39.11" cy="-18" rx="39.11" ry="18"></ellipse>
<text text-anchor="middle" x="39.11" y="-13.32" font-family="Times,serif" font-size="14.00">Parse</text>
</g>
<!-- Render -->
<g id="node2" class="node">
<title>Render</title>
<ellipse fill="none" stroke="black" cx="161.74" cy="-18" rx="47.53" ry="18"></ellipse>
<text text-anchor="middle" x="161.74" y="-13.32" font-family="Times,serif" font-size="14.00">Render</text>
</g>
<!-- Parse&#45;&gt;Render -->
<g id="edge1" class="edge">
<title>Parse-&gt;Render</title>
<path fill="none" stroke="black" d="M78.61,-18C86.2,-18 94.33,-18 102.4,-18"></path>
<polygon fill="black" stroke="black" points="102.22,-21.5 112.22,-18 102.22,-14.5 102.22,-21.5"></polygon>
</g>
<!-- Export -->
<g id="node3" class="node">
<title>Export</title>
<ellipse fill="none" stroke="black" cx="290.69" cy="-18" rx="45.42" ry="18"></ellipse>
<text text-anchor="middle" x="290.69" y="-13.32" font-family="Times,serif" font-size="14.00">Export</text>
</g>
<!-- Render&#45;&gt;Export -->
<g id="edge2" class="edge">
<title>Render-&gt;Export</title>
<path fill="none" stroke="black" d="M209.65,-18C217.52,-18 225.76,-18 233.83,-18"></path>
<polygon fill="black" stroke="black" points="233.56,-21.5 243.56,-18 233.56,-14.5 233.56,-21.5"></polygon>
</g>
</g>
</svg>