<svg viewBox="0 0 256 360" xmlns="http://www.w3.org/2000/svg" xmlns:inkspace="http://www.inkscape.org/namespaces/inkscape" xmlns:xlink="http://www.w3.org/1999/xlink">
  <defs id="defs_block">
    <filter height="1.504" id="filter_blur" inkspace:collect="always" width="1.1575" x="-0.07875" y="-0.252">
      <feGaussianBlur id="feGaussianBlur3780" inkspace:collect="always" stdDeviation="4.2"></feGaussianBlur>
    </filter>
  </defs>
  <title>blockdiag</title>
  <desc>actdiag {
  A -&gt; B -&gt; C;
}</desc>
  <rect fill="rgb(0,0,0)" height="40" stroke="rgb(0,0,0)" style="filter:url(#filter_blur);opacity:0.7;fill-opacity:1" width="128" x="67" y="126"></rect>
  <rect fill="rgb(0,0,0)" height="40" stroke="rgb(0,0,0)" style="filter:url(#filter_blur);opacity:0.7;fill-opacity:1" width="128" x="67" y="206"></rect>
  <rect fill="rgb(0,0,0)" height="40" stroke="rgb(0,0,0)" style="filter:url(#filter_blur);opacity:0.7;fill-opacity:1" width="128" x="67" y="286"></rect>
  <rect fill="#ffff99" height="62" stroke="#ffff99" width="192" x="32" y="38"></rect>
  <text fill="rgb(0,0,0)" font-family="sans-serif" font-size="11" font-style="normal" font-weight="normal" text-anchor="middle" textLength="128" x="128.0" y="68">95fddb30-0ef5-11f1-96</text>
  <text fill="rgb(0,0,0)" font-family="sans-serif" font-size="11" font-style="normal" font-weight="normal" text-anchor="middle" textLength="98" x="128.0" y="81">f7-0242ac120002</text>
  <rect fill="none" height="302" stroke="gray" width="192" x="32" y="38"></rect>
  <path d="M 32 100 L 224 100" fill="none" stroke="gray"></path>
  <rect fill="rgb(255,255,255)" height="40" stroke="rgb(0,0,0)" width="128" x="64" y="120"></rect>
  <text fill="rgb(0,0,0)" font-family="sans-serif" font-size="11" font-style="normal" font-weight="normal" text-anchor="middle" textLength="10" x="128.0" y="146">A</text>
  <rect fill="rgb(255,255,255)" height="40" stroke="rgb(0,0,0)" width="128" x="64" y="200"></rect>
  <text fill="rgb(0,0,0)" font-family="sans-serif" font-size="11" font-style="normal" font-weight="normal" text-anchor="middle" textLength="8" x="128.0" y="226">B</text>
  <rect fill="rgb(255,255,255)" height="40" stroke="rgb(0,0,0)" width="128" x="64" y="280"></rect>
  <text fill="rgb(0,0,0)" font-family="sans-serif" font-size="11" font-style="normal" font-weight="normal" text-anchor="middle" textLength="8" x="128.0" y="306">C</text>
  <path d="M 128 160 L 128 192" fill="none" stroke="rgb(0,0,0)"></path>
  <polygon fill="rgb(0,0,0)" points="128,199 124,192 132,192 128,199" stroke="rgb(0,0,0)"></polygon>
  <path d="M 128 240 L 128 272" fill="none" stroke="rgb(0,0,0)"></path>
  <polygon fill="rgb(0,0,0)" points="128,279 124,272 132,272 128,279" stroke="rgb(0,0,0)"></polygon>
</svg>