<svg width="242pt" height="100pt" viewBox="0.00 0.00 241.75 100.00" xmlns="http://www.w3.org/2000/svg" xmlns:xlink="http://www.w3.org/1999/xlink">
<g id="graph0" class="graph" transform="scale(1 1) rotate(0) translate(4 96)">
<polygon fill="white" stroke="none" points="-4,4 -4,-96 237.75,-96 237.75,4 -4,4"></polygon>
<!-- users -->
<g id="node1" class="node">
<title>users</title>
<polygon fill="none" stroke="black" points="8,-58.5 8,-88 67.5,-88 67.5,-58.5 8,-58.5"></polygon>
<text text-anchor="start" x="13" y="-68.8" font-family="Helvetica,sans-Serif" font-weight="bold" font-size="16.00">users</text>
<polygon fill="none" stroke="black" points="8,-31.25 8,-58.5 67.5,-58.5 67.5,-31.25 8,-31.25"></polygon>
<text text-anchor="start" x="13" y="-41.2" font-family="Helvetica,sans-Serif" text-decoration="underline" font-size="14.00">id</text>
<polygon fill="none" stroke="black" points="8,-4 8,-31.25 67.5,-31.25 67.5,-4 8,-4"></polygon>
<text text-anchor="start" x="13" y="-12.95" font-family="Helvetica,sans-Serif" font-size="14.00">name</text>
</g>
<!-- orders -->
<g id="node2" class="node">
<title>orders</title>
<polygon fill="none" stroke="black" points="156.5,-58.5 156.5,-88 225.75,-88 225.75,-58.5 156.5,-58.5"></polygon>
<text text-anchor="start" x="161.5" y="-68.8" font-family="Helvetica,sans-Serif" font-weight="bold" font-size="16.00">orders</text>
<polygon fill="none" stroke="black" points="156.5,-31.25 156.5,-58.5 225.75,-58.5 225.75,-31.25 156.5,-31.25"></polygon>
<text text-anchor="start" x="161.5" y="-41.2" font-family="Helvetica,sans-Serif" text-decoration="underline" font-size="14.00">id</text>
<polygon fill="none" stroke="black" points="156.5,-4 156.5,-31.25 225.75,-31.25 225.75,-4 156.5,-4"></polygon>
<text text-anchor="start" x="161.5" y="-12.95" font-family="Helvetica,sans-Serif" font-size="14.00">user_id</text>
</g>
<!-- users&#45;&#45;orders -->
<g id="edge1" class="edge">
<title>users--orders</title>
<path fill="none" stroke="#7f7f7f" stroke-dasharray="5,2" d="M75.39,-46C97.53,-46 125.81,-46 148.75,-46"></path>
<text text-anchor="start" x="118.75" y="-32.7" font-family="Times,serif" font-size="14.00">0..N</text>
<text text-anchor="start" x="75.39" y="-32.7" font-family="Times,serif" font-size="14.00">1</text>
</g>
</g>
</svg>